<svg xmlns="http://www.w3.org/2000/svg" width="118.481" height="137.768" viewBox="0 0 118.481 137.768">
  <g id="Group_1831" data-name="Group 1831" transform="translate(410.5 457.5)">
    <g id="np_architect_1904005_000000" transform="translate(-420.629 -461.168)">
      <path id="Path_5967" data-name="Path 5967" d="M45.68,140.936H74.5V128.143h38.91a14.723,14.723,0,0,0,14.7-14.7V18.873a14.718,14.718,0,0,0-14.7-14.7h-4.686V16.541H74.5V4.168H45.681V16.541H10.629v111.6H45.687Zm4.663-12.793V104.8h7.985v-4.663H50.343V89.448l11.26.006V84.791H50.349V74.107h7.985V69.445H50.349V58.755H61.6V54.093H50.349V43.4h7.985V38.741H50.349l-.006-10.689H61.6V23.389H50.349V16.535l-.006-7.7h19.5V136.272h-19.5ZM113.417,8.83a10.054,10.054,0,0,1,10.042,10.042v83.561a14.648,14.648,0,0,0-10.042-3.992L113.388,8.83ZM108.725,21.2v81.9h4.686a10.054,10.054,0,0,1,10.042,10.042v.3a10.054,10.054,0,0,1-10.042,10.042H74.5V21.2ZM15.291,123.48V21.2H45.685V123.48Z" fill="#2d2926" stroke="#2d2926" stroke-width="1"/>
      <path id="Path_5968" data-name="Path 5968" d="M46.043,82.336a6.935,6.935,0,0,0-6.86,6.86c0,.163.035.321.047.484a6.828,6.828,0,0,0,13.627,0c.012-.163.047-.315.047-.484a6.935,6.935,0,0,0-6.86-6.86Zm0,9.063a2.219,2.219,0,1,1,2.139-1.713A2.219,2.219,0,0,1,46.043,91.4Z" transform="translate(14.05 38.463)" fill="#2d2926" stroke="#2d2926" stroke-width="1"/>
    </g>
  </g>
</svg>
