<svg xmlns="http://www.w3.org/2000/svg" width="152.723" height="156.917" viewBox="0 0 152.723 156.917">
  <g id="Group_1830" data-name="Group 1830" transform="translate(397.869 737.145)">
    <rect id="Rectangle_2347" data-name="Rectangle 2347" width="6.003" height="6.003" transform="matrix(0.218, -0.976, 0.976, 0.218, -338.692, -652.739)" fill="#2d2926"/>
    <path id="Path_5956" data-name="Path 5956" d="M1739.754,7566.342a6.984,6.984,0,0,0-8.813,2.361l-4.949-3.4a12.947,12.947,0,0,1,16.356-4.381Zm-4.806,31.051a5.863,5.863,0,1,0-11.257,3.015l-5.8,1.555a11.849,11.849,0,1,1,22.854-6.124Zm-22.129-23.829a6.987,6.987,0,0,0-8.814,2.36l-4.953-3.4a12.946,12.946,0,0,1,16.356-4.382Zm43.088-4.856c-.069-.252-6.77-25.082-6.874-25.476a3.016,3.016,0,0,0-3.677-2.122l-58.863,15.77a3.025,3.025,0,0,0-2.123,3.679s5.65,20.813,6.323,23.426h-43.061a3,3,0,0,0-3,3v26.4a45.775,45.775,0,0,0,8.94,27.17,49.221,49.221,0,0,0,23.55,17.365,2.982,2.982,0,0,0,1.991,0,48.848,48.848,0,0,0,27.268-23.328l-5.319-2.785a42.778,42.778,0,0,1-22.949,20.078c-16.483-6.242-27.484-21.592-27.484-38.5v-23.39h54.939c.01,4.377.023,12.528.033,17.536a2.989,2.989,0,0,0,1.106,2.323,49.178,49.178,0,0,0,27.4,10.813,3,3,0,0,0,1.925-.517,49.3,49.3,0,0,0,18.258-22.858,45.73,45.73,0,0,0,1.615-28.577Z" transform="translate(-2042.5 -8278.154)" fill="#2d2926"/>
    <path id="Path_5957" data-name="Path 5957" d="M1667.115,7598.42a6.97,6.97,0,0,0-9.12,0l-3.906-4.566a12.947,12.947,0,0,1,16.932,0Z" transform="translate(-2040.884 -8269.664)" fill="#2d2926"/>
    <path id="Path_5958" data-name="Path 5958" d="M1681.816,7598.42l-3.906-4.566a12.951,12.951,0,0,1,16.932,0l-3.906,4.566a6.97,6.97,0,0,0-9.12,0Z" transform="translate(-2036.814 -8269.664)" fill="#2d2926"/>
    <path id="Path_5959" data-name="Path 5959" d="M1674.958,7626.233a11.884,11.884,0,0,1-11.826-12.518h6.005a5.863,5.863,0,1,0,11.654,0h6.005a11.9,11.9,0,0,1-11.836,12.518Z" transform="translate(-2039.342 -8265.73)" fill="#2d2926"/>
    <g id="Group_1829" data-name="Group 1829" transform="translate(-335.11 -671.244)">
      <path id="Path_5960" data-name="Path 5960" d="M1771.023,7617.521a5.65,5.65,0,1,1,4-1.654,5.654,5.654,0,0,1-4,1.654Zm9.427-5.655a9.424,9.424,0,1,0-2.761,6.667A9.423,9.423,0,0,0,1780.45,7611.866Z" transform="translate(-1725.771 -7594.898)" fill="#2d2926"/>
      <path id="Path_5960_-_Outline" data-name="Path 5960 - Outline" d="M1771.023,7621.792h0a9.923,9.923,0,1,1,7.02-2.906A9.886,9.886,0,0,1,1771.023,7621.792Zm0-18.849a8.934,8.934,0,1,0,1.746.172A8.9,8.9,0,0,0,1771.022,7602.943Zm0,15.079h-.5V7618a6.155,6.155,0,0,1,.5-12.289h0a6.155,6.155,0,1,1,0,12.31Zm0-11.31a5.154,5.154,0,0,0,0,10.309h.1a5.121,5.121,0,0,0,3.544-1.508,5.156,5.156,0,0,0-3.646-8.8Z" transform="translate(-1725.771 -7594.898)" fill="#2d2926"/>
      <path id="Path_5961" data-name="Path 5961" d="M1750.094,7619.09h0a5.655,5.655,0,1,1-5.655,5.655,5.655,5.655,0,0,1,5.655-5.655Zm0,15.081a9.426,9.426,0,1,0-6.667-2.76A9.425,9.425,0,0,0,1750.094,7634.171Z" transform="translate(-1729.348 -7592.699)" fill="#2d2926"/>
      <path id="Path_5961_-_Outline" data-name="Path 5961 - Outline" d="M1750.1,7614.817h0a9.927,9.927,0,0,1,0,19.854h-.007a9.927,9.927,0,0,1,.01-19.854Zm0,18.854a8.923,8.923,0,1,0-.007,0Zm0-15.081a6.154,6.154,0,1,1-4.351,1.8A6.163,6.163,0,0,1,1750.092,7618.59Zm0,11.311a5.156,5.156,0,1,0-5.155-5.155A5.161,5.161,0,0,0,1750.094,7629.9Z" transform="translate(-1729.348 -7592.699)" fill="#2d2926"/>
      <path id="Path_5962" data-name="Path 5962" d="M1746.6,7649.173a3.777,3.777,0,1,1,2.665-1.105A3.777,3.777,0,0,1,1746.6,7649.173Zm0-11.311a7.544,7.544,0,1,0,5.33,2.21,7.543,7.543,0,0,0-5.33-2.21Z" transform="translate(-1729.624 -7588.846)" fill="#2d2926"/>
      <path id="Path_5962_-_Outline" data-name="Path 5962 - Outline" d="M1746.594,7653.451h0a8.044,8.044,0,0,1,0-16.088h.571l0,.02a7.978,7.978,0,0,1,5.121,2.336,8.044,8.044,0,0,1-5.691,13.732Zm-.116-15.087a7.044,7.044,0,0,0,.115,14.087h0a7.044,7.044,0,0,0,.007-14.087Zm.117,11.31a4.277,4.277,0,1,1,3.025-1.252,4.24,4.24,0,0,1-3.019,1.252Zm0-7.555a3.277,3.277,0,0,0,0,6.555h.005a3.277,3.277,0,0,0-.005-6.555Z" transform="translate(-1729.624 -7588.846)" fill="#2d2926"/>
      <path id="Path_5963" data-name="Path 5963" d="M1761.088,7663.665a3.777,3.777,0,1,1,2.665-1.105A3.777,3.777,0,0,1,1761.088,7663.665Zm0-11.311a7.539,7.539,0,1,0,5.331,2.208,7.539,7.539,0,0,0-5.331-2.208Z" transform="translate(-1727.147 -7586.37)" fill="#2d2926"/>
      <path id="Path_5963_-_Outline" data-name="Path 5963 - Outline" d="M1761.083,7667.935a8.04,8.04,0,0,1-.5-16.064v-.016l.5,0a7.98,7.98,0,0,1,5.685,2.356,8.041,8.041,0,0,1-5.689,13.726Zm.145-15.081h-.141a6.813,6.813,0,1,0,.141,0Zm-.149,11.311a4.277,4.277,0,1,1,3.027-1.252,4.236,4.236,0,0,1-3.019,1.252Zm0-7.556a3.278,3.278,0,0,0,0,6.556h.007a3.243,3.243,0,0,0,2.312-.958,3.279,3.279,0,0,0-2.32-5.6Z" transform="translate(-1727.147 -7586.37)" fill="#2d2926"/>
      <path id="Path_5964" data-name="Path 5964" d="M1816.519,7603.675,1796.99,7642.6a11.2,11.2,0,0,0-7.861-5l24.354-35.687a1.756,1.756,0,0,1,3.019,1.757Zm-22.622,49.2c-1.522,2.358-7.861,4.225-12.46,5.072-.979-4.468-1.735-10.9-.208-13.194h0a7.541,7.541,0,1,1,12.669,8.184Zm-6.882,16.646h2.81a5.278,5.278,0,0,1,1.98,10.18,41.664,41.664,0,0,1-56.894-35.271c-3.11-41.644,50.768-59.741,65.17-29.579l-15.722,23.095a11.312,11.312,0,0,0-6.222,4.693c-3.336,5.165,0,17.381,0,18a8.881,8.881,0,0,0,8.88,8.879Zm30.974-71.221a5.537,5.537,0,0,0-7.539,1.488l-7.956,11.556c-18.1-31.932-74.653-10.745-71.355,33.35,2.171,29.482,33.18,50.182,62.079,38.513,9.067-3.677,6.578-17.458-3.4-17.458h-2.81a5.085,5.085,0,0,1-4.995-4.071c9.428-1.757,17.853-4.9,16.78-14.179l21.057-42.072a5.523,5.523,0,0,0-1.866-7.125Z" transform="translate(-1731 -7596)" fill="#2d2926"/>
      <path id="Path_5964_-_Outline" data-name="Path 5964 - Outline" d="M1775.358,7595.5a35.3,35.3,0,0,1,8.1.921,30.927,30.927,0,0,1,7.531,2.837,29.746,29.746,0,0,1,11.537,11.153l7.509-10.906a6.047,6.047,0,0,1,4.958-2.586h0a6.019,6.019,0,0,1,3.264.961l.517.333-.028.028a6.017,6.017,0,0,1,1.55,7.414l-20.988,41.936a10.264,10.264,0,0,1-4.682,10.229c-3.437,2.363-8.379,3.555-11.992,4.25a4.6,4.6,0,0,0,4.364,3.18h2.823a9.3,9.3,0,0,1,6.323,2.317,9.732,9.732,0,0,1,2.994,5.375,9.891,9.891,0,0,1-.76,6.176,9.263,9.263,0,0,1-4.973,4.553,44.924,44.924,0,0,1-33.735.117,46.7,46.7,0,0,1-14.218-8.9,45.2,45.2,0,0,1-14.813-30.155,45.9,45.9,0,0,1,2.555-19.262,44.444,44.444,0,0,1,9.26-15.083,47.77,47.77,0,0,1,15.36-11A43.351,43.351,0,0,1,1775.358,7595.5Zm27.093,16.786-.394-.695a28.9,28.9,0,0,0-11.54-11.452,29.921,29.921,0,0,0-7.288-2.745,34.282,34.282,0,0,0-7.872-.894,42.344,42.344,0,0,0-17.134,3.8,46.758,46.758,0,0,0-15.036,10.764,43.45,43.45,0,0,0-9.053,14.745,44.912,44.912,0,0,0-2.5,18.846,44.2,44.2,0,0,0,14.489,29.49,45.706,45.706,0,0,0,13.914,8.711,43.921,43.921,0,0,0,32.99-.115,8.275,8.275,0,0,0,4.449-4.062,8.885,8.885,0,0,0,.679-5.548,8.727,8.727,0,0,0-2.68-4.822,8.31,8.31,0,0,0-5.656-2.062H1787a5.586,5.586,0,0,1-5.472-4.472l-.1-.5.5-.093c7.427-1.384,10.484-3.054,12.136-4.19a9.3,9.3,0,0,0,4.238-9.439l-.017-.148.067-.133,21.057-42.072a5.019,5.019,0,0,0-1.695-6.484l-.053-.035a5.035,5.035,0,0,0-6.8,1.392Zm-27.19-12.937a31.981,31.981,0,0,1,7.658.905,27.324,27.324,0,0,1,7.019,2.786,25.873,25.873,0,0,1,10.592,11.594l.124.259-.162.237-15.821,23.241-.169.051a10.824,10.824,0,0,0-5.947,4.486c-1.154,1.786-1.6,4.715-1.325,8.707a58.658,58.658,0,0,0,1.21,7.957,7.315,7.315,0,0,1,.195,1.068,8.392,8.392,0,0,0,8.38,8.379h2.833a5.778,5.778,0,0,1,2.141,11.144,42.163,42.163,0,0,1-57.578-35.694,42.536,42.536,0,0,1,2.321-17.761,40.373,40.373,0,0,1,8.44-13.787,43.475,43.475,0,0,1,14.085-10.047A39.782,39.782,0,0,1,1775.261,7599.35Zm24.242,15.458a24.834,24.834,0,0,0-10.061-10.9,26.328,26.328,0,0,0-6.763-2.684,30.99,30.99,0,0,0-7.419-.876,38.777,38.777,0,0,0-15.6,3.44,42.462,42.462,0,0,0-13.758,9.813,39.383,39.383,0,0,0-8.233,13.447,41.182,41.182,0,0,0,38.76,55.091,40.982,40.982,0,0,0,15.187-2.905,4.778,4.778,0,0,0-1.771-9.215H1785.6l.112-.091a9.4,9.4,0,0,1-8.079-9.278c-.01-.1-.089-.474-.173-.873-.669-3.174-2.7-12.833.254-17.413a11.826,11.826,0,0,1,6.326-4.847Zm15.394-14.1a2.259,2.259,0,0,1,2.25,2.435l.205-.011-20.307,40.477-.475-.731a10.688,10.688,0,0,0-7.51-4.772l-.8-.11.455-.667,24.364-35.7A2.265,2.265,0,0,1,1814.9,7600.7Zm1.017,3.06.13-.291a1.256,1.256,0,0,0-2.154-1.264l-23.911,35.037a11.686,11.686,0,0,1,6.938,4.384Zm-28.345,37.04a8.043,8.043,0,0,1,6.747,12.406l-.913,1.414,0-.477a15.234,15.234,0,0,1-4.408,2.3,47.586,47.586,0,0,1-7.467,1.992l-.475.088-.1-.473c-.379-1.73-2.167-10.515-.138-13.575A8.016,8.016,0,0,1,1787.57,7640.8Zm6.255,11.263a7.041,7.041,0,0,0-12.176-7.041l0,.006c-1.271,1.912-.836,7.487.179,12.335,4.96-.963,10.371-2.774,11.653-4.761Z" transform="translate(-1731 -7596)" fill="#2d2926"/>
    </g>
  </g>
</svg>
