<svg xmlns="http://www.w3.org/2000/svg" width="127.113" height="131.183" viewBox="0 0 127.113 131.183">
  <g id="Group_1821" data-name="Group 1821" transform="translate(-132.5 -7897.5)">
    <path id="Path_5899" data-name="Path 5899" d="M159.442,7926.48H139.935l21.541-21.542v19.507a2.032,2.032,0,0,1-2.034,2.035Zm79.331,0a16.269,16.269,0,1,1-4.765-11.508,16.269,16.269,0,0,1,4.765,11.508Zm-8.136,73.228H222.5v-36.614h8.137Zm-2.035,16.273a2.035,2.035,0,0,0-2.034,2.035,6.1,6.1,0,0,1-6.1,6.1h-77.3a6.1,6.1,0,0,1-6.1-6.1v-87.469h22.376a6.1,6.1,0,0,0,6.1-6.1v-22.375h54.922a6.1,6.1,0,0,1,5.838,4.434,20.34,20.34,0,1,0,.265,39.909v12.612h-6.1a2.034,2.034,0,0,0-2.034,2.034v40.682a2.028,2.028,0,0,0,2.034,2.035h12.2a2.028,2.028,0,0,0,2.034-2.034V7961.06a2.032,2.032,0,0,0-2.034-2.035H230.64V7945.11a20.341,20.341,0,0,0,0-37.286A10.169,10.169,0,0,0,220.467,7898H163.512a2.022,2.022,0,0,0-1.444.59l-28.478,28.477a2.026,2.026,0,0,0-.59,1.444v89.5a10.174,10.174,0,0,0,10.171,10.17h77.3a10.175,10.175,0,0,0,10.171-10.171,2.032,2.032,0,0,0-2.034-2.034Z" fill="#2d2926" stroke="#2d2926" stroke-width="1"/>
    <path id="Path_5900" data-name="Path 5900" d="M198.091,7975.3h8.136v24.409h-8.136Zm-2.035,28.478h12.205a2.03,2.03,0,0,0,2.034-2.034v-28.478a2.033,2.033,0,0,0-2.034-2.036h-12.2a2.034,2.034,0,0,0-2.034,2.036v28.478a2.03,2.03,0,0,0,2.035,2.034Z" fill="#2d2926" stroke="#2d2926" stroke-width="1"/>
    <path id="Path_5901" data-name="Path 5901" d="M255.045,7999.708h-8.137v-48.819h8.137Zm2.034-52.887H244.874a2.033,2.033,0,0,0-2.034,2.034v52.887a2.028,2.028,0,0,0,2.034,2.035h12.2a2.028,2.028,0,0,0,2.034-2.034v-52.887a2.032,2.032,0,0,0-2.034-2.034Z" fill="#2d2926" stroke="#2d2926" stroke-width="1"/>
    <path id="Path_5902" data-name="Path 5902" d="M257.079,8007.845H196.055a2.034,2.034,0,0,0,0,4.068h61.024a2.034,2.034,0,1,0,0-4.068Z" fill="#2d2926" stroke="#2d2926" stroke-width="1"/>
    <path id="Path_5903" data-name="Path 5903" d="M220.466,7914.275v2.034a6.1,6.1,0,0,0,0,12.206h4.068a2.034,2.034,0,0,1,0,4.068h-4.068a2.033,2.033,0,0,1-2.034-2.034,2.034,2.034,0,0,0-4.068,0,6.1,6.1,0,0,0,6.1,6.1v2.035a2.034,2.034,0,1,0,4.068,0v-2.035a6.1,6.1,0,1,0,0-12.2h-4.068a2.034,2.034,0,1,1,0-4.069h4.068a2.034,2.034,0,0,1,2.034,2.035,2.035,2.035,0,0,0,4.069,0,6.1,6.1,0,0,0-6.1-6.1v-2.034a2.034,2.034,0,1,0-4.068,0Z" fill="#2d2926" stroke="#2d2926" stroke-width="1"/>
    <path id="Path_5904" data-name="Path 5904" d="M187.92,7973.264v-17.473l10.171-10.171v5.269a2.034,2.034,0,1,0,4.068,0v-10.171a2.033,2.033,0,0,0-.142-.712v-.183a2.17,2.17,0,0,0-.285-.427l-.143-.163a1.978,1.978,0,0,0-.549-.366,2.016,2.016,0,0,0-.915-.183H189.954a2.034,2.034,0,0,0,0,4.068h5.269l-10.761,10.761a2.032,2.032,0,0,0-.61,1.444v17.473l-21.785,21.77a2.034,2.034,0,1,0,2.868,2.869l22.376-22.376a2.05,2.05,0,0,0,.61-1.424Z" fill="#2d2926" stroke="#2d2926" stroke-width="1"/>
    <path id="Path_5905" data-name="Path 5905" d="M147.238,7942.753h26.443a2.034,2.034,0,1,0,0-4.068H147.238a2.034,2.034,0,0,0,0,4.068Z" fill="#2d2926" stroke="#2d2926" stroke-width="1"/>
    <path id="Path_5906" data-name="Path 5906" d="M147.238,7952.924h26.443a2.034,2.034,0,1,0,0-4.068H147.238a2.034,2.034,0,0,0,0,4.068Z" fill="#2d2926" stroke="#2d2926" stroke-width="1"/>
    <path id="Path_5907" data-name="Path 5907" d="M147.238,7963.094h26.443a2.034,2.034,0,1,0,0-4.068H147.238a2.034,2.034,0,0,0,0,4.068Z" fill="#2d2926" stroke="#2d2926" stroke-width="1"/>
    <path id="Path_5908" data-name="Path 5908" d="M165.544,7971.23a2.033,2.033,0,0,0-2.034-2.035H147.237a2.035,2.035,0,1,0,0,4.07H163.51a2.032,2.032,0,0,0,2.034-2.036Z" fill="#2d2926" stroke="#2d2926" stroke-width="1"/>
    <path id="Path_5909" data-name="Path 5909" d="M143.169,8007.845a2.032,2.032,0,0,0-2.034,2.034v4.068a6.1,6.1,0,0,0,6.1,6.1H151.3a2.034,2.034,0,1,0,0-4.069h-4.068a2.033,2.033,0,0,1-2.034-2.035v-4.067a2.031,2.031,0,0,0-2.034-2.034Z" fill="#2d2926" stroke="#2d2926" stroke-width="1"/>
    <path id="Path_5910" data-name="Path 5910" d="M159.441,8020.049h4.068a2.034,2.034,0,1,0,0-4.068h-4.068a2.034,2.034,0,0,0,0,4.068Z" fill="#2d2926" stroke="#2d2926" stroke-width="1"/>
  </g>
</svg>
