<svg xmlns="http://www.w3.org/2000/svg" width="138.317" height="138.454" viewBox="0 0 138.317 138.454">
  <path id="Path_5911" data-name="Path 5911" d="M522.5,7904.615a2.874,2.874,0,0,0,2.611-3.948,26.289,26.289,0,1,1,49.01-19.037,2.871,2.871,0,0,0,4.843.89,19.887,19.887,0,0,1,34.781,13.167,20.155,20.155,0,0,1-1.007,6.292,2.874,2.874,0,0,0,3.838,3.546,12.919,12.919,0,0,1,5-.959,13.9,13.9,0,1,1,0,27.8h-17.06V7918.3a2.879,2.879,0,0,0-5.758,0v14.071h-21.44l.008-33.907a2.879,2.879,0,1,0-5.758,0v33.917H550.95V7918.3a2.879,2.879,0,1,0-5.758,0v14.072H522.817a13.88,13.88,0,1,1-.315-27.758Zm112.992,81.028a5.466,5.466,0,0,1-10.932,0,5.548,5.548,0,0,1,1.266-3.485,5.462,5.462,0,0,1,9.666,3.484Zm-55.577-7.968a5.466,5.466,0,1,1-5.466-5.466,5.466,5.466,0,0,1,5.466,5.466Zm-62.364,13.434a5.467,5.467,0,0,1,.007-10.933,5.4,5.4,0,0,1,4.216,1.992l.008.007a5.4,5.4,0,0,1,1.251,3.469A5.494,5.494,0,0,1,517.551,7991.109Zm-14.378-72.635a19.663,19.663,0,0,0,19.647,19.647H545.2v21.41l-21.1,17.036a11.466,11.466,0,1,0,3.634,4.467l22.148-17.885a2.884,2.884,0,0,0,1.07-2.242V7938.13h20.614v28.755a11.224,11.224,0,1,0,5.742,0v-28.747h21.44v21.889a2.867,2.867,0,0,0,.928,2.117l20.26,18.719a11.332,11.332,0,1,0,3.736-4.4l-19.159-17.7V7938.13h17.06a19.651,19.651,0,1,0-2.274-39.176,26.478,26.478,0,0,0,.2-3.265,25.638,25.638,0,0,0-41.74-19.944,32.043,32.043,0,0,0-59.162,23.562,19.741,19.741,0,0,0-15.424,19.168Z" transform="translate(-503.173 -7858.817)" fill="#2d2926"/>
</svg>
