<svg xmlns="http://www.w3.org/2000/svg" width="123.606" height="121.199" viewBox="0 0 123.606 121.199">
  <g id="Group_1832" data-name="Group 1832" transform="translate(0 0.001)">
    <path id="Path_5971" data-name="Path 5971" d="M1402.923,8371.076H1287.558v-78.283h6.18v70.043a2.056,2.056,0,0,0,2.06,2.061h98.885a2.057,2.057,0,0,0,2.06-2.061v-70.043h6.18Zm-105.066-14.421h38.287l4.12,4.12h-42.407Zm0-70.044h16.481a31.078,31.078,0,0,0,18.541,28.3v2.605h-2.06a2.058,2.058,0,0,0-2.06,2.06v16.481a2.055,2.055,0,0,0,2.06,2.059h12.361v19.747l-4.723-4.723a2.056,2.056,0,0,0-1.458-.6h-39.142Zm47.383-26.78a26.765,26.765,0,0,1,9.564,51.771,2.065,2.065,0,0,0-1.323,1.927v3.986h-6.18v-11.088l11.222-5.6a2.063,2.063,0,0,0,1.138-1.854v-6.181h4.12v-4.12h-4.12v-8.24h-4.12v8.24h-4.12v-4.12h-4.12v4.12h-4.121v-4.12h-4.12v4.12h-4.12v-8.24h-4.12v8.24h-4.12v4.12h4.12v6.181a2.066,2.066,0,0,0,1.138,1.844l11.222,5.608v11.088H1337v-3.986a2.062,2.062,0,0,0-1.323-1.926,26.766,26.766,0,0,1,9.564-51.771Zm-12.36,65.923v-4.12h24.72v4.12Zm24.721,4.12v4.12H1332.88v-4.12Zm-14.421-32.961v-4.12h4.12v4.12h4.12v-4.12h4.12v4.908l-10.3,5.149-10.3-5.149v-4.908h4.12v4.12Zm49.442,59.742v4.12h-42.407l4.12-4.12Zm-16.481-70.044h16.481v65.924h-39.143a2.053,2.053,0,0,0-1.457.6l-4.723,4.723V8338.11h12.361a2.058,2.058,0,0,0,2.06-2.06v-16.481a2.058,2.058,0,0,0-2.06-2.06h-2.06V8314.9a31.077,31.077,0,0,0,18.541-28.295Zm28.842,2.061h-8.241v-4.12a2.055,2.055,0,0,0-2.06-2.061h-18.85a30.866,30.866,0,0,0-61.185,0H1295.8a2.061,2.061,0,0,0-2.06,2.062v4.119h-8.24a2.058,2.058,0,0,0-2.06,2.06v82.4a2.056,2.056,0,0,0,2.06,2.061h119.486a2.057,2.057,0,0,0,2.06-2.061v-82.4a2.058,2.058,0,0,0-2.06-2.06Z" transform="translate(-1283.44 -8253.994)" fill="#2d2926"/>
    <rect id="Rectangle_2348" data-name="Rectangle 2348" width="12.36" height="4.12" transform="translate(20.598 55.277)" fill="#2d2926"/>
    <rect id="Rectangle_2349" data-name="Rectangle 2349" width="18.54" height="4.12" transform="translate(20.598 63.517)" fill="#2d2926"/>
    <rect id="Rectangle_2350" data-name="Rectangle 2350" width="18.54" height="4.12" transform="translate(20.598 71.757)" fill="#2d2926"/>
    <rect id="Rectangle_2351" data-name="Rectangle 2351" width="18.54" height="4.12" transform="translate(20.598 79.997)" fill="#2d2926"/>
    <rect id="Rectangle_2352" data-name="Rectangle 2352" width="32.962" height="4.12" transform="translate(20.598 88.238)" fill="#2d2926"/>
    <path id="Path_5972" data-name="Path 5972" d="M1349.773,8264.4a22.712,22.712,0,0,0-4.532-.453v4.12a18.7,18.7,0,0,1,3.711.371Z" transform="translate(-1283.44 -8253.994)" fill="#2d2926"/>
    <path id="Path_5973" data-name="Path 5973" d="M1341.533,8268.439l-.824-4.037a22.522,22.522,0,0,0-11.65,6.345l2.941,2.885a18.467,18.467,0,0,1,9.533-5.192Z" transform="translate(-1283.44 -8253.994)" fill="#2d2926"/>
    <rect id="Rectangle_2353" data-name="Rectangle 2353" width="4.12" height="4.12" transform="translate(20.598 47.036)" fill="#2d2926"/>
    <rect id="Rectangle_2354" data-name="Rectangle 2354" width="12.361" height="4.12" transform="translate(90.642 55.277)" fill="#2d2926"/>
    <rect id="Rectangle_2355" data-name="Rectangle 2355" width="18.54" height="4.12" transform="translate(84.462 63.517)" fill="#2d2926"/>
    <rect id="Rectangle_2356" data-name="Rectangle 2356" width="18.54" height="4.12" transform="translate(84.462 71.757)" fill="#2d2926"/>
    <rect id="Rectangle_2357" data-name="Rectangle 2357" width="18.54" height="4.12" transform="translate(84.462 79.997)" fill="#2d2926"/>
    <rect id="Rectangle_2358" data-name="Rectangle 2358" width="32.962" height="4.12" transform="translate(70.041 88.238)" fill="#2d2926"/>
    <rect id="Rectangle_2359" data-name="Rectangle 2359" width="4.12" height="4.12" transform="translate(98.882 47.036)" fill="#2d2926"/>
    <path id="Path_5974" data-name="Path 5974" d="M1379.4,8278.823l4.018-.911h0a38.509,38.509,0,0,0-1.262-4.352l-3.883,1.37a36.694,36.694,0,0,1,1.127,3.888Z" transform="translate(-1283.44 -8253.994)" fill="#2d2926"/>
    <path id="Path_5975" data-name="Path 5975" d="M1376.373,8270.552l3.657-1.891a39.32,39.32,0,0,0-13.149-14.668l-2.276,3.431a35.188,35.188,0,0,1,11.768,13.127Z" transform="translate(-1283.44 -8253.994)" fill="#2d2926"/>
  </g>
</svg>
