<svg id="Group_1822" data-name="Group 1822" xmlns="http://www.w3.org/2000/svg" width="165.597" height="165.594" viewBox="0 0 165.597 165.594">
  <rect id="Rectangle_2328" data-name="Rectangle 2328" width="5.342" height="5.341" transform="translate(80.126 0)" fill="#2d2926"/>
  <rect id="Rectangle_2329" data-name="Rectangle 2329" width="5.341" height="5.341" transform="matrix(0.924, -0.383, 0.383, 0.924, 62.953, 4.48)" fill="#2d2926"/>
  <rect id="Rectangle_2330" data-name="Rectangle 2330" width="5.345" height="5.345" transform="matrix(0.707, -0.707, 0.707, 0.707, 48.802, 15.184)" fill="#2d2926"/>
  <rect id="Rectangle_2331" data-name="Rectangle 2331" width="5.341" height="5.341" transform="translate(39.822 30.495) rotate(-67.505)" fill="#2d2926"/>
  <rect id="Rectangle_2332" data-name="Rectangle 2332" width="5.342" height="5.342" transform="translate(37.392 42.733)" fill="#2d2926"/>
  <rect id="Rectangle_2333" data-name="Rectangle 2333" width="5.341" height="5.341" transform="translate(39.822 60.315) rotate(-22.495)" fill="#2d2926"/>
  <rect id="Rectangle_2334" data-name="Rectangle 2334" width="5.341" height="5.341" transform="translate(118.787 63.208) rotate(-67.508)" fill="#2d2926"/>
  <rect id="Rectangle_2335" data-name="Rectangle 2335" width="5.342" height="5.342" transform="translate(122.861 42.733)" fill="#2d2926"/>
  <rect id="Rectangle_2336" data-name="Rectangle 2336" width="5.341" height="5.341" transform="translate(118.787 27.611) rotate(-22.495)" fill="#2d2926"/>
  <rect id="Rectangle_2337" data-name="Rectangle 2337" width="5.345" height="5.345" transform="matrix(0.707, -0.707, 0.707, 0.707, 109.232, 15.19)" fill="#2d2926"/>
  <rect id="Rectangle_2338" data-name="Rectangle 2338" width="5.341" height="5.341" transform="translate(95.656 7.372) rotate(-67.505)" fill="#2d2926"/>
  <path id="Path_5912" data-name="Path 5912" d="M971.8,8042.265c-47.989,0-77.454-10.89-77.454-18.7,0-6.771,20.859-15.244,55.795-17.882l4.894,4.9c-44.958,1.875-50.006,9.627-50.006,12.986,0,3.111,2.39,7.084,21.007,10.19,12.245,2.042,28.5,3.165,45.765,3.165s33.519-1.122,45.764-3.165c18.617-3.105,21.007-7.079,21.007-10.19,0-3.358-5.048-11.111-50.006-12.986l4.894-4.9c34.935,2.638,55.8,11.111,55.8,17.882,0,7.806-29.466,18.7-77.455,18.7Zm-10.683-74.788v29.382H950.43v-29.382Zm-10.683-10.684h42.734v5.342H950.43Zm21.366-24.037a5.342,5.342,0,1,1,5.342-5.342,5.342,5.342,0,0,1-5.342,5.342ZM949.761,7946.8a29.38,29.38,0,1,1,44.072,0l-.668.761v3.893h-18.7v-13.731a10.684,10.684,0,1,0-5.342,0v13.735h-18.7v-3.893Zm43.4,50.059H982.48v-29.381h10.684Zm-16.025-29.381v29.381H966.454v-29.381Zm-5.342,52.311L954.209,8002.2h35.182Zm0,7.561,11.606-11.605c30.281.93,47.106,5.074,49.658,7.825-2.758,2.879-22.963,8.013-61.264,8.013s-58.5-5.134-61.264-8.013c2.559-2.751,19.377-6.9,49.665-7.825Zm26.609-26.615.1-.094v-33.157h5.341v-5.343H998.5V7956.8h5.341v-5.341H998.5v-1.9a34.721,34.721,0,1,0-53.416,0v1.9h-5.342v5.341h5.342v5.342h-5.342v5.342h5.342v33.166l.1.1c-27.111,2.545-56.189,9.786-56.189,22.822,0,15.611,42.661,24.037,82.8,24.037s82.8-8.427,82.8-24.037c0-13.034-29.078-20.279-56.189-22.835Z" transform="translate(-889 -7882.012)" fill="#2d2926"/>
  <rect id="Rectangle_2339" data-name="Rectangle 2339" width="16.025" height="5.342" transform="translate(133.544 42.733)" fill="#2d2926"/>
  <rect id="Rectangle_2340" data-name="Rectangle 2340" width="16.025" height="5.342" transform="translate(16.025 42.733)" fill="#2d2926"/>
</svg>
