<svg xmlns="http://www.w3.org/2000/svg" width="134.669" height="134.622" viewBox="0 0 134.669 134.622">
  <g id="Group_1823" data-name="Group 1823" transform="translate(0 0)">
    <path id="Path_5913" data-name="Path 5913" d="M1341.286,7968.583a26.045,26.045,0,1,1,26.045-26.045,26.046,26.046,0,0,1-26.045,26.045Zm0-56.432a30.386,30.386,0,1,0,30.386,30.387,30.387,30.387,0,0,0-30.386-30.387Z" transform="translate(-1273.929 -7875.181)" fill="#2d2926"/>
    <path id="Path_5914" data-name="Path 5914" d="M1341.285,7955.561a13.023,13.023,0,1,1,13.023-13.023,13.023,13.023,0,0,1-13.023,13.023Zm0-30.387a17.364,17.364,0,1,0,17.364,17.364A17.365,17.365,0,0,0,1341.285,7925.174Z" transform="translate(-1273.929 -7875.181)" fill="#2d2926"/>
    <path id="Path_5915" data-name="Path 5915" d="M1397.718,8005.482a6.511,6.511,0,1,1,6.511-6.511,6.51,6.51,0,0,1-6.511,6.511Zm-30.686-30.37-6.375-3.766-1.118.695a34.4,34.4,0,0,1-10.3,4.275l-1.281.3-1.839,7.162h-9.659l-1.845-7.162-1.28-.3a34.517,34.517,0,0,1-10.305-4.275l-1.118-.694-6.375,3.766-6.827-6.826,3.766-6.376-.694-1.118a34.377,34.377,0,0,1-4.276-10.31l-.3-1.28-7.157-1.834v-9.659l7.163-1.839.3-1.281a34.507,34.507,0,0,1,4.276-10.31l.7-1.117-3.766-6.376,6.826-6.827,6.376,3.766,1.118-.694a34.4,34.4,0,0,1,10.3-4.276l1.281-.3,1.844-7.163h9.659l1.845,7.163,1.28.3a34.486,34.486,0,0,1,10.305,4.276l1.118.694,6.375-3.766,6.827,6.827-3.766,6.376.694,1.117a34.378,34.378,0,0,1,4.276,10.31l.3,1.281,7.151,1.839v9.659l-7.162,1.839-.3,1.281a34.471,34.471,0,0,1-4.275,10.309l-.7,1.118,3.766,6.376ZM1291.364,7923a2.17,2.17,0,1,1,2.17-2.17A2.171,2.171,0,0,1,1291.364,7923Zm26.046-30.386a2.171,2.171,0,1,1,2.17-2.17,2.171,2.171,0,0,1-2.17,2.17Zm78.137,29.3a2.17,2.17,0,1,1-2.171,2.17,2.169,2.169,0,0,1,2.171-2.17Zm-26.046,70.54a2.17,2.17,0,1,1-2.171,2.17,2.17,2.17,0,0,1,2.171-2.17Zm-28.216,8.682a2.171,2.171,0,1,1,2.171-2.171,2.171,2.171,0,0,1-2.171,2.171Zm-45.579-6.512a6.511,6.511,0,1,1,6.512-6.511,6.51,6.51,0,0,1-6.512,6.511Zm-10.852-49.921a2.174,2.174,0,1,1,0,.006Zm-6.512-58.6a6.511,6.511,0,1,1,6.512,6.513,6.511,6.511,0,0,1-6.512-6.513Zm62.943-6.511a2.171,2.171,0,1,1-2.17,2.17,2.171,2.171,0,0,1,2.17-2.17Zm45.58,10.852a6.511,6.511,0,1,1-6.512,6.511,6.509,6.509,0,0,1,6.512-6.511Zm15.194,49.922a2.17,2.17,0,1,1-2.171,2.17,2.17,2.17,0,0,1,2.171-2.17Zm-4.341,47.75a10.8,10.8,0,0,0-5.974,1.807l-16.692-16.691,4.26-4.26-4.157-7.032a38.657,38.657,0,0,0,3.809-9.181l7.9-2.03v-6.022h9.083a6.512,6.512,0,1,0,0-4.342h-9.083v-4.525l5.893-5.893a6.58,6.58,0,1,0-3.071-3.07l-6.517,6.517-4.211-1.08a38.635,38.635,0,0,0-3.809-9.181l4.156-7.033-4.259-4.26,5.838-5.839a10.9,10.9,0,1,0-3.065-3.071l-5.839,5.839-4.265-4.26-7.027,4.157a38.737,38.737,0,0,0-9.181-3.81l-2.029-7.9h-6.023v-9.083a6.513,6.513,0,1,0-4.341,0v9.083h-6.023l-1.248,4.851-8.574-8.574a6.4,6.4,0,0,0,.651-2.789,6.512,6.512,0,1,0-6.512,6.512,6.425,6.425,0,0,0,2.79-.651l9.094,9.094a38.8,38.8,0,0,0-7.412,3.267l-7.027-4.157-4.265,4.26-16.691-16.692a10.887,10.887,0,1,0-3.071,3.071l16.691,16.691-4.259,4.26,4.156,7.032a38.848,38.848,0,0,0-3.267,7.412l-6.924-6.923a6.412,6.412,0,0,0,.652-2.789,6.577,6.577,0,1,0-3.723,5.859l6.4,6.4-4.851,1.248v6.023h-4.742a6.511,6.511,0,1,0,0,4.341h4.742v6.023l7.9,2.03a38.672,38.672,0,0,0,3.809,9.182l-4.157,7.032,4.26,4.26-5.839,5.838a10.887,10.887,0,1,0,3.072,3.072l5.838-5.839,4.265,4.259,7.027-4.156a38.688,38.688,0,0,0,9.181,3.809l2.03,7.9h6.023v4.742a6.512,6.512,0,1,0,4.341,0v-4.742h6.023l2.029-7.9c.13-.032.26-.081.391-.119l11.742,11.742a6.416,6.416,0,0,0-.651,2.789,6.511,6.511,0,1,0,6.511-6.511,6.4,6.4,0,0,0-2.789.651l-10.266-10.268a37.735,37.735,0,0,0,4.243-2.1l7.027,4.156,4.265-4.26,16.691,16.692a10.845,10.845,0,1,0,9.046-4.874Z" transform="translate(-1273.929 -7875.181)" fill="#2d2926"/>
  </g>
</svg>
