<?xml version="1.0" encoding="utf-8"?>
<!-- Generator: Adobe Illustrator 23.0.1, SVG Export Plug-In . SVG Version: 6.00 Build 0)  -->
<svg version="1.1" id="Layer_1" xmlns="http://www.w3.org/2000/svg" xmlns:xlink="http://www.w3.org/1999/xlink" x="0px" y="0px"
	 viewBox="0 0 64 64" style="enable-background:new 0 0 64 64;" xml:space="preserve">
<style type="text/css">
	.st0{fill:#020202;}
</style>
<g>
	<path d="M47.55,20.25c-0.03-0.05-0.08-0.08-0.11-0.13C43.87,15.5,38.28,12.5,32,12.5c-6.25,0-11.81,2.97-15.38,7.55
		c-0.06,0.06-0.13,0.12-0.18,0.21c-0.01,0.02-0.01,0.04-0.02,0.06c-2.45,3.26-3.93,7.3-3.93,11.69c0,4.38,1.47,8.4,3.91,11.66
		c0.01,0.03,0.01,0.06,0.03,0.09c0.07,0.12,0.15,0.21,0.26,0.29c3.57,4.53,9.1,7.46,15.31,7.46c6.23,0,11.77-2.94,15.34-7.5
		c0.08-0.07,0.16-0.15,0.22-0.25c0.01-0.02,0.01-0.05,0.02-0.07c2.45-3.26,3.92-7.3,3.92-11.68c0-4.4-1.48-8.44-3.94-11.71
		C47.55,20.28,47.55,20.26,47.55,20.25z M46.41,42.01c-1.71-0.86-3.8-1.56-6.11-2.05c0.44-2.14,0.69-4.5,0.75-6.99h8.47
		C49.33,36.32,48.22,39.42,46.41,42.01z M14.49,32.97h8.47c0.05,2.49,0.31,4.85,0.75,6.99c-2.31,0.49-4.4,1.18-6.11,2.04
		C15.78,39.42,14.67,36.32,14.49,32.97z M17.59,21.99c1.72,0.86,3.8,1.55,6.11,2.04c-0.44,2.15-0.69,4.51-0.75,7h-8.47
		C14.67,27.68,15.78,24.58,17.59,21.99z M31.03,31.03h-6.14c0.05-2.44,0.3-4.67,0.71-6.66c1.74,0.28,3.56,0.44,5.43,0.48V31.03z
		 M31.03,32.97v6.18c-1.85,0.04-3.69,0.2-5.43,0.47c-0.4-1.99-0.65-4.22-0.7-6.65H31.03z M32.97,32.97h6.14
		c-0.05,2.43-0.3,4.67-0.7,6.65c-1.74-0.28-3.58-0.43-5.43-0.47V32.97z M32.97,31.03v-6.18c1.88-0.04,3.7-0.2,5.43-0.48
		c0.4,1.99,0.65,4.22,0.7,6.66H32.97z M32.97,22.91v-8.27c1.93,0.72,3.82,3.54,4.99,7.84C36.36,22.72,34.68,22.87,32.97,22.91z
		 M31.03,14.64v8.27c-1.7-0.04-3.38-0.18-4.99-0.43C27.21,18.18,29.1,15.36,31.03,14.64z M31.03,41.09v8.27
		c-1.93-0.72-3.82-3.54-4.99-7.84C27.65,41.27,29.33,41.13,31.03,41.09z M32.97,49.36v-8.27c1.7,0.04,3.39,0.18,4.99,0.43
		C36.79,45.82,34.9,48.64,32.97,49.36z M41.05,31.03c-0.05-2.5-0.31-4.86-0.75-7c2.31-0.49,4.39-1.18,6.11-2.04
		c1.81,2.59,2.92,5.7,3.11,9.05H41.05z M45.18,20.42c-1.51,0.71-3.32,1.3-5.32,1.72c-0.79-2.96-1.93-5.4-3.31-7.09
		C39.93,15.96,42.92,17.86,45.18,20.42z M27.46,15.05c-1.38,1.69-2.52,4.13-3.31,7.09c-2.01-0.42-3.81-1-5.33-1.71
		C21.08,17.86,24.07,15.96,27.46,15.05z M18.82,43.57c1.51-0.71,3.32-1.3,5.33-1.72c0.79,2.96,1.93,5.41,3.32,7.1
		C24.07,48.04,21.08,46.14,18.82,43.57z M36.54,48.95c1.38-1.69,2.52-4.13,3.32-7.1c2.01,0.42,3.82,1.01,5.32,1.72
		C42.92,46.14,39.93,48.04,36.54,48.95z"/>
	<path d="M64,32c0-2.39-1.8-4.34-4.12-4.62C57.93,15.46,48.53,6.06,36.62,4.11C36.34,1.8,34.39,0,32,0s-4.34,1.8-4.62,4.11
		C15.47,6.07,6.07,15.47,4.11,27.38C1.8,27.66,0,29.61,0,32c0,2.39,1.8,4.34,4.11,4.62c1.95,11.91,11.35,21.31,23.26,23.26
		C27.66,62.2,29.61,64,32,64s4.34-1.8,4.62-4.12c11.91-1.95,21.31-11.35,23.26-23.26C62.2,36.34,64,34.39,64,32z M32,1.94
		c1.51,0,2.74,1.23,2.74,2.74c0,1.51-1.23,2.74-2.74,2.74c-1.51,0-2.74-1.23-2.74-2.74C29.26,3.17,30.49,1.94,32,1.94z M1.94,32
		c0-1.51,1.23-2.74,2.74-2.74c1.51,0,2.74,1.23,2.74,2.74s-1.23,2.74-2.74,2.74C3.17,34.74,1.94,33.51,1.94,32z M32,62.06
		c-1.51,0-2.74-1.23-2.74-2.74c0-1.51,1.23-2.74,2.74-2.74c1.51,0,2.74,1.23,2.74,2.74C34.74,60.83,33.51,62.06,32,62.06z
		 M36.45,57.95c-0.59-1.91-2.35-3.31-4.45-3.31c-2.1,0-3.86,1.4-4.45,3.31C16.57,56.08,7.91,47.43,6.05,36.45
		C7.96,35.86,9.36,34.1,9.36,32s-1.4-3.86-3.31-4.45c1.86-10.98,10.52-19.63,21.5-21.5C28.14,7.96,29.9,9.36,32,9.36
		c2.1,0,3.86-1.4,4.45-3.31c10.98,1.86,19.63,10.52,21.49,21.5c-1.91,0.59-3.31,2.35-3.31,4.45c0,2.1,1.4,3.86,3.31,4.45
		C56.09,47.43,47.43,56.09,36.45,57.95z M59.32,34.74c-1.51,0-2.74-1.23-2.74-2.74s1.23-2.74,2.74-2.74s2.74,1.23,2.74,2.74
		S60.83,34.74,59.32,34.74z"/>
</g>
</svg>
