<svg xmlns="http://www.w3.org/2000/svg" width="134.585" height="134.271" viewBox="0 0 134.585 134.271">
  <g id="np_diploma_3628496_000000" transform="translate(-6.883 -6.985)">
    <path id="Path_8039" data-name="Path 8039" d="M107.792,56.445a3.138,3.138,0,0,1-1.585-.439,3.055,3.055,0,0,1-1.463-2.609V43.9a65.811,65.811,0,0,0-60.783,0v9.5a3.049,3.049,0,0,1-4.438,2.719l-25.7-13.138a3.048,3.048,0,0,1,0-5.426L72.962,7.326a3.086,3.086,0,0,1,2.774,0l59.136,30.226a3.048,3.048,0,0,1,0,5.426l-25.7,13.138a3.187,3.187,0,0,1-1.384.329ZM21.922,40.259l15.961,8.157v-6.34a3.042,3.042,0,0,1,1.573-2.67,71.875,71.875,0,0,1,69.841,0,3.059,3.059,0,0,1,1.573,2.67v6.34l15.961-8.157L74.353,13.452Z" transform="translate(2.963 0.007)" fill="#2d2926"/>
    <path id="Path_8040" data-name="Path 8040" d="M98.555,67.508H31.689a3.057,3.057,0,0,1-3.048-3.048V33.685a3.042,3.042,0,0,1,1.573-2.67,71.875,71.875,0,0,1,69.841,0,3.059,3.059,0,0,1,1.573,2.67V64.46a3.082,3.082,0,0,1-3.073,3.048Zm-63.818-6.1h60.77V35.514a65.811,65.811,0,0,0-60.783,0V61.405Z" transform="translate(12.199 8.397)" fill="#2d2926"/>
    <path id="Path_8041" data-name="Path 8041" d="M25.85,64.829H10.212A3.047,3.047,0,0,1,7.7,63.506a3.084,3.084,0,0,1-.317-2.835L15.2,40.845a3.042,3.042,0,0,1,5.67,0l7.816,19.825a3.039,3.039,0,0,1-2.835,4.158Zm-11.169-6.1h6.694l-3.341-8.474Z" transform="translate(0.164 17.898)" fill="#2d2926"/>
    <path id="Path_8042" data-name="Path 8042" d="M15.224,52.039a3.057,3.057,0,0,1-3.048-3.048V29.4a3.048,3.048,0,1,1,6.1,0V48.985a3.055,3.055,0,0,1-3.048,3.054Z" transform="translate(2.968 10.861)" fill="#2d2926"/>
    <path id="Path_8043" data-name="Path 8043" d="M12.876,98.146a6,6,0,0,1-5.987-6.005L6.883,69.675A5.991,5.991,0,0,1,13.3,63.688l54.381,3.871A3.013,3.013,0,0,1,70.4,69.846a3.066,3.066,0,0,1-1.292,3.323A9.289,9.289,0,0,0,68.988,88.7a3.051,3.051,0,0,1-1.475,5.578L13.285,98.133c-.122.012-.256.012-.408.012Zm.1-28.367V92.044l47.838-3.4A15.418,15.418,0,0,1,60.879,73.2Z" transform="translate(0 31.786)" fill="#2d2926"/>
    <path id="Path_8044" data-name="Path 8044" d="M109.984,98.147c-.134,0-.274,0-.427-.012L55.33,94.282A3.051,3.051,0,0,1,53.855,88.7a9.289,9.289,0,0,0-.122-15.534,3.056,3.056,0,0,1,1.433-5.609l54.381-3.871a5.991,5.991,0,0,1,6.414,5.987V92.16a5.964,5.964,0,0,1-5.975,5.987ZM62.035,88.636l47.838,3.4.006-22.259L61.974,73.193a15.418,15.418,0,0,1,.061,15.442Z" transform="translate(25.49 31.785)" fill="#2d2926"/>
    <path id="Path_8045" data-name="Path 8045" d="M55.532,95.677a15.394,15.394,0,0,1-7.425-1.9c-.4-.213-.774-.457-1.146-.7a15.387,15.387,0,1,1,17.119,0c-.366.244-.75.488-1.146.7a15.165,15.165,0,0,1-7.4,1.9Zm0-24.69a9.3,9.3,0,0,0-5.17,17.027c.012,0,.012.012.03.012a6.714,6.714,0,0,0,.658.4,9.289,9.289,0,0,0,8.962.012c.244-.134.457-.274.671-.415.012,0,.012-.012.03-.012a9.294,9.294,0,0,0-5.182-17.021Z" transform="translate(18.643 32.467)" fill="#2d2926"/>
    <path id="Path_8046" data-name="Path 8046" d="M61.683,100.452a3.32,3.32,0,0,1-1.25-.256L53.891,97.27,47.356,100.2a3.094,3.094,0,0,1-3.066-.335,3.048,3.048,0,0,1-1.207-2.817l1.829-14.631a3.052,3.052,0,0,1,4.5-2.28,9.332,9.332,0,0,0,8.962,0,3.052,3.052,0,0,1,4.5,2.28L64.7,97.044a3,3,0,0,1-1.207,2.817,3.034,3.034,0,0,1-1.811.591ZM50.477,86.967l-.683,5.456,2.853-1.268a3.1,3.1,0,0,1,2.487,0l2.853,1.268-.683-5.456a15.731,15.731,0,0,1-6.828,0Z" transform="translate(20.284 40.801)" fill="#2d2926"/>
    <path id="Path_8047" data-name="Path 8047" d="M51.45,80.253a4.039,4.039,0,0,1-1.951-.5c-.11-.061-.213-.122-.3-.183a4.036,4.036,0,1,1,4.511,0c-.11.061-.2.134-.3.183a4.039,4.039,0,0,1-1.951.5ZM50.3,77.924c.012,0,.012.012.03.012a2,2,0,0,0,2.219,0l.012-.012-.579-.866.6.866a2.043,2.043,0,0,0,0-3.39c-.049-.03-.11-.061-.152-.091a2.077,2.077,0,0,0-1.981,0c-.049.03-.11.061-.152.091a2.039,2.039,0,0,0,.006,3.39l.579-.866Z" transform="translate(22.725 36.541)" fill="#2d2926"/>
    <path id="Path_8048" data-name="Path 8048" d="M26.471,80.12H9.931a3.048,3.048,0,1,1,0-6.1h16.54a3.048,3.048,0,1,1,0,6.1Z" transform="translate(0 37.588)" fill="#2d2926"/>
    <path id="Path_8049" data-name="Path 8049" d="M96.23,76.6H85.177a3.048,3.048,0,0,1,0-6.1H96.224a3.048,3.048,0,0,1,.006,6.1Z" transform="translate(42.19 35.617)" fill="#2d2926"/>
    <path id="Path_8050" data-name="Path 8050" d="M29.46,13.081H26.107a3.048,3.048,0,0,1,0-6.1H29.46a3.048,3.048,0,1,1,0,6.1Z" transform="translate(9.069 0)" fill="#2d2926"/>
    <path id="Path_8051" data-name="Path 8051" d="M24.051,13.081H9.931a3.048,3.048,0,1,1,0-6.1H24.045a3.048,3.048,0,0,1,.006,6.1Z" transform="translate(0 0)" fill="#2d2926"/>
    <path id="Path_8052" data-name="Path 8052" d="M96.856,18.165h-.012l-12.8-.073A3.048,3.048,0,0,1,84.06,12h.012l12.8.073a3.048,3.048,0,0,1-.018,6.1Z" transform="translate(41.563 2.81)" fill="#2d2926"/>
  </g>
</svg>
