<svg xmlns="http://www.w3.org/2000/svg" width="134.46" height="127.017" viewBox="0 0 134.46 127.017">
  <g id="Group_1825" data-name="Group 1825" transform="translate(-133.07 -8283.419)">
    <path id="Path_5920" data-name="Path 5920" d="M243.437,8299.6c.915-5.542,3.8-10.438,8.958-10.438,5.852,0,9.123,3.515,9.761,10.438ZM223.4,8405.13a2.693,2.693,0,0,0-1.067-.224H220c-7.4-1.605-12.683-10.438-12.683-18.43a2.632,2.632,0,0,0-2.634-2.633H153.871l-.474-77.488c0-12.156,8.872-17.692,17.1-17.692l71.756.35c-2.758,3.488-4.4,8.536-4.4,14.571l.789,86.138c.007,8.194-6.746,14.908-15.237,15.408Zm-66.774-.224c-12.222,0-16.7-10.438-17.916-15.8h63.476a26.868,26.868,0,0,0,7.49,15.8Zm98.025-120.8a2.552,2.552,0,0,0-1.152-.3l-82.991-.388c-11.124,0-22.378,7.9-22.378,22.984l.473,77.449H135.7a2.632,2.632,0,0,0-2.633,2.633c0,6.325,5.588,23.694,23.563,23.694h62.83a16.625,16.625,0,0,0,2.936.256c11.867,0,21.522-9.286,21.522-20.733l-.8-84.846c.1.007.184.013.276.013h21.5a2.632,2.632,0,0,0,2.633-2.633c0-10.518-4.792-17.08-12.874-18.127Z" fill="#2d2926"/>
    <path id="Path_5921" data-name="Path 5921" d="M169.377,8308.726a2.574,2.574,0,0,0,1.145-1.355l1.981-5.279,5.246,2.067a2.662,2.662,0,0,0,1.777.053l5.358-1.751,1.652,5.384a2.606,2.606,0,0,0,1.066,1.429l4.72,3.1-3.179,4.653a2.636,2.636,0,0,0-.448,1.725l.513,5.607-5.621.421a2.621,2.621,0,0,0-1.625.725l-4.068,3.9-3.83-4.134a2.673,2.673,0,0,0-1.587-.822l-5.588-.751.843-5.574a2.668,2.668,0,0,0-.343-1.751l-2.882-4.825Zm10.478,34.9a2.626,2.626,0,0,0-3.146-.021l-4.317,3.173v-15.349l3.448,3.838c.488.519,1.146,1.184,1.857,1.184h.079a3.086,3.086,0,0,0,1.823-1.066l4.324-4.41V8346.7Zm-18.074-16.06a2.692,2.692,0,0,0,1.757,1.072l3.587.521v22.819a2.632,2.632,0,0,0,4.193,2.127l6.931-5.1,6.72,5.068a2.6,2.6,0,0,0,2.751.256,2.634,2.634,0,0,0,1.461-2.355v-22.347l3.081-.229a2.627,2.627,0,0,0,2.428-2.863l-.671-7.332,4.153-6.082a2.64,2.64,0,0,0-.724-3.686l-6.154-4.055-2.166-7.036a2.631,2.631,0,0,0-1.3-1.566,2.687,2.687,0,0,0-2.034-.171l-7,2.277-6.845-2.679a2.636,2.636,0,0,0-3.429,1.526l-2.587,6.9-6.377,3.679a2.641,2.641,0,0,0-.942,3.64l3.778,6.325-1.1,7.3a2.686,2.686,0,0,0,.494,1.987Z" fill="#2d2926"/>
    <path id="Path_5922" data-name="Path 5922" d="M227.6,8362.783H164.414a2.632,2.632,0,1,0,0,5.264H227.6a2.632,2.632,0,1,0,0-5.265Z" fill="#2d2926"/>
    <path id="Path_5923" data-name="Path 5923" d="M227.6,8346.986H206.538a2.632,2.632,0,1,0,0,5.264H227.6a2.632,2.632,0,1,0,0-5.265Z" fill="#2d2926"/>
    <path id="Path_5924" data-name="Path 5924" d="M227.6,8331.189H206.538a2.632,2.632,0,1,0,0,5.264H227.6a2.632,2.632,0,1,0,0-5.265Z" fill="#2d2926"/>
    <path id="Path_5925" data-name="Path 5925" d="M227.6,8315.393H206.538a2.632,2.632,0,1,0,0,5.264H227.6a2.632,2.632,0,1,0,0-5.265Z" fill="#2d2926"/>
    <path id="Path_5926" data-name="Path 5926" d="M227.6,8299.6H206.538a2.632,2.632,0,1,0,0,5.264H227.6a2.632,2.632,0,1,0,0-5.265Z" fill="#2d2926"/>
  </g>
</svg>
