<svg xmlns="http://www.w3.org/2000/svg" width="133.404" height="133.292" viewBox="0 0 133.404 133.292">
  <g id="Group_1826" data-name="Group 1826" transform="translate(0.5 0.5)">
    <path id="Path_5927" data-name="Path 5927" d="M514.177,8269.017a2.065,2.065,0,1,1-1.462.6,2.069,2.069,0,0,1,1.462-.6Zm0,8.268a6.2,6.2,0,1,0-6.2-6.2A6.2,6.2,0,0,0,514.177,8277.284Z" transform="translate(-501.775 -8256.614)" fill="#2d2926" stroke="#2d2926" stroke-width="1"/>
    <path id="Path_5928" data-name="Path 5928" d="M505.909,8258.682a2.067,2.067,0,1,1-2.067-2.067,2.067,2.067,0,0,1,2.067,2.067" transform="translate(-501.775 -8256.614)" fill="#2d2926" stroke="#2d2926" stroke-width="1"/>
    <path id="Path_5929" data-name="Path 5929" d="M621.664,8269.017a2.068,2.068,0,1,1-2.067,2.066,2.069,2.069,0,0,1,2.067-2.066Zm0,8.268a6.2,6.2,0,1,0-6.2-6.2A6.2,6.2,0,0,0,621.664,8277.284Z" transform="translate(-501.775 -8256.614)" fill="#2d2926" stroke="#2d2926" stroke-width="1"/>
    <path id="Path_5930" data-name="Path 5930" d="M634.066,8258.682a2.067,2.067,0,1,1-2.067-2.067,2.067,2.067,0,0,1,2.067,2.067" transform="translate(-501.775 -8256.614)" fill="#2d2926" stroke="#2d2926" stroke-width="1"/>
    <path id="Path_5931" data-name="Path 5931" d="M514.177,8376.5a2.062,2.062,0,1,1,1.463-.6,2.062,2.062,0,0,1-1.463.6Zm0-8.268a6.2,6.2,0,1,0,6.2,6.2,6.2,6.2,0,0,0-6.2-6.2Z" transform="translate(-501.775 -8256.614)" fill="#2d2926" stroke="#2d2926" stroke-width="1"/>
    <path id="Path_5932" data-name="Path 5932" d="M505.909,8386.839a2.067,2.067,0,1,1-2.067-2.067,2.067,2.067,0,0,1,2.067,2.067" transform="translate(-501.775 -8256.614)" fill="#2d2926" stroke="#2d2926" stroke-width="1"/>
    <path id="Path_5933" data-name="Path 5933" d="M621.664,8376.5a2.065,2.065,0,1,1,1.462-.6,2.066,2.066,0,0,1-1.462.6Zm0-8.268a6.2,6.2,0,1,0,6.2,6.2,6.2,6.2,0,0,0-6.2-6.2Z" transform="translate(-501.775 -8256.614)" fill="#2d2926" stroke="#2d2926" stroke-width="1"/>
    <path id="Path_5934" data-name="Path 5934" d="M634.066,8386.839a2.067,2.067,0,1,1-2.067-2.067,2.067,2.067,0,0,1,2.067,2.067" transform="translate(-501.775 -8256.614)" fill="#2d2926" stroke="#2d2926" stroke-width="1"/>
    <path id="Path_5935" data-name="Path 5935" d="M553.834,8303.909a16.46,16.46,0,0,1-3.1,3.481,10.5,10.5,0,0,1,7.442,5.117,16.656,16.656,0,0,1,3.607-2A14.732,14.732,0,0,0,553.834,8303.909Z" transform="translate(-501.775 -8256.614)" fill="#2d2926" stroke="#2d2926" stroke-width="1"/>
    <path id="Path_5936" data-name="Path 5936" d="M516.245,8317.861v14.313a4.013,4.013,0,0,0,4,4.021h24.669a18.989,18.989,0,0,1,5.436-4.134H520.379v-14.2a10.571,10.571,0,0,1,8.888-10.471,16.466,16.466,0,0,1-3.1-3.482,14.752,14.752,0,0,0-9.921,13.952Z" transform="translate(-501.775 -8256.614)" fill="#2d2926" stroke="#2d2926" stroke-width="1"/>
    <path id="Path_5937" data-name="Path 5937" d="M618.563,8332.175v-14.313a14.757,14.757,0,0,0-9.953-13.964,16.451,16.451,0,0,1-3.1,3.483,10.573,10.573,0,0,1,8.92,10.479v14.2H585.49a18.829,18.829,0,0,1,5.4,4.135h23.636a4.013,4.013,0,0,0,4.041-4.021Z" transform="translate(-501.775 -8256.614)" fill="#2d2926" stroke="#2d2926" stroke-width="1"/>
    <path id="Path_5938" data-name="Path 5938" d="M573.171,8310.192a16.327,16.327,0,0,1,3.752,1.809,10.48,10.48,0,0,1,7.121-4.608,16.442,16.442,0,0,1-3.1-3.483,14.7,14.7,0,0,0-7.772,6.282Z" transform="translate(-501.775 -8256.614)" fill="#2d2926" stroke="#2d2926" stroke-width="1"/>
    <path id="Path_5939" data-name="Path 5939" d="M633.146,8317.942a2.07,2.07,0,0,0-2.862.568l-.455.683a61.936,61.936,0,1,0-3.4,24.164,2.067,2.067,0,1,0-3.9-1.373,57.948,57.948,0,1,1,3.1-23.18l-.2-.3a2.068,2.068,0,0,0-3.442,2.295l4.134,6.2a2.07,2.07,0,0,0,3.442,0l4.134-6.2a2.069,2.069,0,0,0-.558-2.854Z" transform="translate(-501.775 -8256.614)" fill="#2d2926" stroke="#2d2926" stroke-width="1"/>
    <path id="Path_5940" data-name="Path 5940" d="M628.319,8334.387a2.067,2.067,0,1,1-2.067-2.067,2.067,2.067,0,0,1,2.067,2.067" transform="translate(-501.775 -8256.614)" fill="#2d2926" stroke="#2d2926" stroke-width="1"/>
    <path id="Path_5941" data-name="Path 5941" d="M540.015,8303.123a8.274,8.274,0,1,1,5.845-2.424,8.273,8.273,0,0,1-5.845,2.424Zm0-20.671a12.4,12.4,0,1,0,12.4,12.4A12.4,12.4,0,0,0,540.015,8282.452Z" transform="translate(-501.775 -8256.614)" fill="#2d2926" stroke="#2d2926" stroke-width="1"/>
    <path id="Path_5942" data-name="Path 5942" d="M594.791,8286.587a8.263,8.263,0,1,1-5.847,2.42,8.267,8.267,0,0,1,5.847-2.42Zm0,20.67a12.4,12.4,0,1,0-12.4-12.4,12.4,12.4,0,0,0,12.4,12.4Z" transform="translate(-501.775 -8256.614)" fill="#2d2926" stroke="#2d2926" stroke-width="1"/>
    <path id="Path_5943" data-name="Path 5943" d="M548.149,8367.2h39.544a4.012,4.012,0,0,0,4-4.019v-14.315a14.754,14.754,0,0,0-9.952-13.963,16.461,16.461,0,0,1-3.1,3.482,10.572,10.572,0,0,1,8.919,10.48v14.2H548.284v-14.2a10.571,10.571,0,0,1,8.888-10.47,16.434,16.434,0,0,1-3.1-3.483,14.751,14.751,0,0,0-9.921,13.952v14.314a4.013,4.013,0,0,0,4,4.021Z" transform="translate(-501.775 -8256.614)" fill="#2d2926" stroke="#2d2926" stroke-width="1"/>
    <path id="Path_5944" data-name="Path 5944" d="M576.188,8325.861a8.274,8.274,0,1,1-2.423-5.845,8.275,8.275,0,0,1,2.423,5.845Zm-20.67,0a12.4,12.4,0,1,0,12.4-12.4,12.4,12.4,0,0,0-12.4,12.4Z" transform="translate(-501.775 -8256.614)" fill="#2d2926" stroke="#2d2926" stroke-width="1"/>
  </g>
</svg>
