<?xml version="1.0" encoding="iso-8859-1"?>
<!-- Generator: Adobe Illustrator 21.0.2, SVG Export Plug-In . SVG Version: 6.00 Build 0)  -->
<svg version="1.1" id="Layer_1_1_" xmlns="http://www.w3.org/2000/svg" xmlns:xlink="http://www.w3.org/1999/xlink" x="0px" y="0px"
	 viewBox="0 0 64 64" style="enable-background:new 0 0 64 64;" xml:space="preserve">
<g>
</g>
<path d="M57,2H7C4.243,2,2,4.243,2,7v38c0,2.757,2.243,5,5,5h15.382l-3,6H10c-0.347,0-0.668,0.18-0.851,0.474
	c-0.183,0.295-0.199,0.663-0.044,0.973l2,4C11.275,61.786,11.621,62,12,62h40c0.379,0,0.725-0.214,0.895-0.553l2-4
	c0.155-0.31,0.139-0.678-0.044-0.973C54.668,56.18,54.347,56,54,56h-9.382l-3-6H57c2.757,0,5-2.243,5-5V7C62,4.243,59.757,2,57,2z
	 M7,4h50c1.654,0,3,1.346,3,3v34H43.444C43.788,40.409,44,39.732,44,39V14c0-0.552-0.447-1-1-1c-1.103,0-2-0.897-2-2s0.897-2,2-2
	c0.553,0,1-0.448,1-1s-0.447-1-1-1H24h-6h-6c-2.206,0-4,1.794-4,4v28c0,0.732,0.212,1.409,0.556,2H4V7C4,5.346,5.346,4,7,4z M24,41
	c-1.103,0-2-0.897-2-2V14.463c0.135,0.078,0.277,0.147,0.422,0.21c0.01,0.004,0.018,0.01,0.028,0.014
	c0.212,0.089,0.435,0.154,0.663,0.206c0.056,0.013,0.112,0.024,0.169,0.034C23.516,14.97,23.754,15,24,15h16h2v24
	c0,1.103-0.897,2-2,2H24z M18,41c-1.103,0-2-0.897-2-2V14.463c0.135,0.078,0.277,0.147,0.422,0.21
	c0.01,0.004,0.018,0.01,0.028,0.014c0.212,0.089,0.435,0.154,0.663,0.206c0.056,0.013,0.112,0.024,0.169,0.034
	C17.516,14.97,17.754,15,18,15h2v24c0,0.246,0.03,0.484,0.073,0.718c0.01,0.057,0.021,0.113,0.034,0.169
	c0.052,0.228,0.117,0.451,0.206,0.662c0.005,0.012,0.012,0.022,0.017,0.034c0.062,0.143,0.13,0.283,0.208,0.417H18z M39.537,13H24
	c-1.103,0-2-0.897-2-2s0.897-2,2-2h15.537C39.195,9.589,39,10.272,39,11S39.195,12.411,39.537,13z M20,11v2h-2c-1.103,0-2-0.897-2-2
	s0.897-2,2-2h2.556C20.212,9.591,20,10.268,20,11z M14,11v2h-2c-1.103,0-2-0.897-2-2s0.897-2,2-2h2.556
	C14.212,9.591,14,10.268,14,11z M10,39V14.463c0.135,0.078,0.277,0.147,0.422,0.21c0.01,0.004,0.018,0.01,0.028,0.014
	c0.212,0.089,0.435,0.154,0.663,0.206c0.056,0.013,0.112,0.024,0.169,0.034C11.516,14.97,11.754,15,12,15h2v24
	c0,0.246,0.03,0.484,0.073,0.718c0.01,0.057,0.021,0.113,0.034,0.169c0.052,0.228,0.117,0.451,0.206,0.662
	c0.005,0.012,0.012,0.022,0.017,0.034c0.062,0.143,0.13,0.283,0.208,0.417H12C10.897,41,10,40.103,10,39z M51.382,60H12.618l-1-2H20
	h24h8.382L51.382,60z M42.382,56H21.618l3-6h14.764L42.382,56z M57,48H40H24H7c-1.654,0-3-1.346-3-3v-2h8h6h6h16h20v2
	C60,46.654,58.654,48,57,48z"/>
<rect x="25" y="19" width="14" height="2"/>
<rect x="25" y="23" width="14" height="2"/>
<path d="M46.617,25.924C46.741,25.975,46.871,26,47,26c0.26,0,0.516-0.102,0.707-0.293L51,22.414l3.293,3.293l1.414-1.414L52.414,21
	l3.293-3.293c0.286-0.286,0.372-0.716,0.217-1.09C55.77,16.244,55.404,16,55,16h-8c-0.553,0-1,0.448-1,1v8
	C46,25.404,46.243,25.769,46.617,25.924z M48,18h4.586L48,22.586V18z"/>
</svg>
