<svg id="Group_1828" data-name="Group 1828" xmlns="http://www.w3.org/2000/svg" width="115.929" height="115.986" viewBox="0 0 115.929 115.986">
  <path id="Path_5952" data-name="Path 5952" d="M1767.822,8372.149a19.353,19.353,0,0,1-19.332-19.229c.154-.887,1.839-2.519,7.249-2.519a11.845,11.845,0,0,1,8.214,3.145,17.1,17.1,0,0,0,22.231,0c.331-.24.648-.484.965-.725a19.352,19.352,0,0,1-19.327,19.327Zm-47.3,0,14.058-38.66h13.82l1.336,3.271a24.078,24.078,0,0,0-6.084,15.917v.146a24.113,24.113,0,0,0,9.731,19.327Zm11.05-70.071a2.416,2.416,0,0,1,2.415-2.418h14.5a2.417,2.417,0,0,1,0,4.834h-2.415a2.416,2.416,0,0,0-2.419,2.415v14.5a2.418,2.418,0,0,0,.181.915l2.591,6.334H1736.34l2.338-6.425h0a2.558,2.558,0,0,0,.145-.829v-14.5a2.421,2.421,0,0,0-2.419-2.414h-2.415a2.414,2.414,0,0,1-2.415-2.415Zm31.95,31.91h0a2.414,2.414,0,0,0,1.88-2.36v-5.388a2.412,2.412,0,0,0-2.415-2.414,2.417,2.417,0,1,1,0-4.834h9.664a2.417,2.417,0,1,1,0,4.835,2.413,2.413,0,0,0-2.415,2.414v5.388a2.42,2.42,0,0,0,1.88,2.36,19.186,19.186,0,0,1,14.308,13.582,29.161,29.161,0,0,0-3.14,2.107,12.32,12.32,0,0,1-16.432,0,16.549,16.549,0,0,0-11.114-4.105,20.21,20.21,0,0,0-6.171.844,19.216,19.216,0,0,1,13.954-12.428Zm11.544-4.209v-1.536a7.25,7.25,0,0,0-2.419-14.086h-9.664a7.249,7.249,0,0,0-2.415,14.087v1.535a24.229,24.229,0,0,0-7.009,3.524l-5.074-12.378v-11.6a7.25,7.25,0,0,0,0-14.5h-14.5a7.25,7.25,0,1,0,0,14.5v11.657l-19.187,52.754a2.418,2.418,0,0,0,2.274,3.244h50.743a24.164,24.164,0,0,0,7.249-47.2Z" transform="translate(-1676.004 -8260.997)" fill="#2d2926"/>
  <path id="Path_5953" data-name="Path 5953" d="M1692.913,8280.332h-8.663l11.082-11.082v8.662a2.428,2.428,0,0,1-2.419,2.42Zm-12.079,89.4v-84.573h12.079a7.247,7.247,0,0,0,7.249-7.249v-12.078h57.992a2.42,2.42,0,0,1,2.419,2.415v41.079h4.834v-41.079a7.246,7.246,0,0,0-7.249-7.25h-60.407a2.418,2.418,0,0,0-1.708.706l-19.332,19.333a2.411,2.411,0,0,0-.707,1.708v86.988a7.248,7.248,0,0,0,7.249,7.25h26.581v-4.835h-26.581a2.411,2.411,0,0,1-2.415-2.414Z" transform="translate(-1676.004 -8260.997)" fill="#2d2926"/>
  <path id="Path_5954" data-name="Path 5954" d="M1755.739,8282.747v-4.835a7.25,7.25,0,0,0-7.248-7.249h-4.835v4.835h4.834a2.411,2.411,0,0,1,2.415,2.415v4.834Z" transform="translate(-1676.004 -8260.997)" fill="#2d2926"/>
  <rect id="Rectangle_2341" data-name="Rectangle 2341" width="4.834" height="4.835" transform="translate(57.988 9.666)" fill="#2d2926"/>
  <rect id="Rectangle_2342" data-name="Rectangle 2342" width="21.747" height="4.835" transform="translate(24.158 38.662)" fill="#2d2926"/>
  <rect id="Rectangle_2343" data-name="Rectangle 2343" width="31.411" height="4.835" transform="translate(14.494 50.745)" fill="#2d2926"/>
  <rect id="Rectangle_2344" data-name="Rectangle 2344" width="31.411" height="4.834" transform="translate(14.494 62.829)" fill="#2d2926"/>
  <rect id="Rectangle_2345" data-name="Rectangle 2345" width="31.411" height="4.835" transform="translate(14.494 74.906)" fill="#2d2926"/>
  <rect id="Rectangle_2346" data-name="Rectangle 2346" width="4.834" height="4.835" transform="translate(14.494 38.662)" fill="#2d2926"/>
  <path id="Path_5955" data-name="Path 5955" d="M1695.332,8357.651v-2.415a2.411,2.411,0,0,1,2.415-2.415h19.332v-4.834h-19.332a7.246,7.246,0,0,0-7.249,7.249v2.414a7.247,7.247,0,0,0,7.249,7.249h12.083v-4.829h-12.083a2.415,2.415,0,0,1-2.415-2.42Z" transform="translate(-1676.004 -8260.997)" fill="#2d2926"/>
</svg>
